<svg xmlns="http://www.w3.org/2000/svg" class="icon icon--brand-ps-circle-color psn-icon" aria-hidden="true" viewBox="0 0 20 20" focusable="false" version="1.1">
		<title/><g><linearGradient id="brand-ps-circle-colored" gradientUnits="userSpaceOnUse" x1="31.781" y1="-199.975" x2="32.21" y2="-200.591" gradientTransform="matrix(26 0 0 -28 -821 -5597)"><stop offset="0" stop-color="#00c0f3"/><stop offset="1" stop-color="#007dc5"/></linearGradient><path d="M10.29 20c-.94 0-4.26-.23-6.77-2.96C1.27 14.6 1 11.82 1 10.02 1 6.19 2.44 4.16 3.51 3 6.02.23 9.34 0 10.28 0s4.26.23 6.77 2.96c2.24 2.45 2.51 5.22 2.51 7.02 0 3.83-1.44 5.87-2.51 7.02-2.5 2.77-5.82 3-6.76 3z" fill="url(#brand-ps-circle-colored)"/><g fill="#fff"><path d="M9.01 4.61v9.55l2.13.69v-8c0-.37.18-.64.45-.55.36.09.41.45.41.82v3.2c1.31.64 2.35 0 2.35-1.74 0-1.78-.59-2.56-2.4-3.15-.67-.23-2.03-.64-2.94-.82"/><path d="M11.55 13.47l3.44-1.23c.41-.14.45-.32.14-.46-.32-.09-.9-.09-1.27.05l-2.27.82v-1.28l.14-.05s.68-.23 1.58-.32 2.08 0 2.94.37c1 .32 1.13.78.86 1.14-.27.32-.86.55-.86.55l-4.7 1.65v-1.24M5.12 13.34c-1.04-.28-1.22-.92-.72-1.28.45-.32 1.18-.59 1.18-.59l3.03-1.1v1.23l-2.17.78c-.41.13-.46.32-.14.45.32.09.9.09 1.27-.05l1.04-.37v1.14c-.05 0-.14.05-.23.05a7.2 7.2 0 0 1-3.26-.26"/></g><g fill="#fff"><path d="M13.76 14.62h-.27v-.09h.68v.09h-.27v.77h-.14zM14.62 15.39l-.22-.73v.73h-.14v-.86h.18l.27.77.28-.77h.18v.86h-.14v-.73l-.32.73z"/></g></g>	</svg>