<svg xmlns="http://www.w3.org/2000/svg" class="icon icon--ps-grid icon--grey" aria-hidden="true" viewBox="0 0 20 20" focusable="false" version="1.1">
		<title/><g fill-rule="evenodd" clip-rule="evenodd" transform="translate(183)"><path d="M-181.78,7.77h6.14V1.63h-6.14V7.77z M-182.93,8.91h8.43V0.48h-8.43V8.91z" class="icon-primary-color icon--part-1"/><path d="M-168.26,2.16l3.35,5.66h-6.56L-168.26,2.16z M-168.28,0l-5.04,8.91H-163L-168.28,0z" class="icon-primary-color icon--part-2"/><polygon points="-174.57,11.48 -175.44,10.6 -178.81,13.97 -182.12,10.66 -183,11.54 -179.69,14.85 -182.97,18.13 -182.1,19.01 -178.81,15.73 -175.47,19.07 -174.59,18.2 -177.94,14.85" class="icon-primary-color icon--part-3"/><path d="M-168.27,18.17c1.88,0,3.4-1.52,3.4-3.4s-1.52-3.4-3.4-3.4s-3.4,1.52-3.4,3.4S-170.15,18.17-168.27,18.17z M-168.27,10.14c2.56,0,4.63,2.07,4.63,4.63c0,2.56-2.07,4.63-4.63,4.63c-2.56,0-4.63-2.07-4.63-4.63C-172.9,12.21-170.83,10.14-168.27,10.14z" class="icon-primary-color icon--part-4"/></g>	</svg>