<svg xmlns="http://www.w3.org/2000/svg" class="icon icon--heart icon--36 icon--grey" aria-hidden="true" viewBox="0 0 20 20" focusable="false" version="1.1">
		<title>Like this</title><path d="M18.38 1.77C17.43.68 16.12 0 14.67 0c-1.45 0-2.76.68-3.71 1.77-.41.47-.73 1.03-.99 1.64-.27-.61-.59-1.17-1-1.64C8.02.68 6.7 0 5.25 0 3.8 0 2.49.68 1.54 1.77.59 2.87 0 4.37 0 6.04c0 1.67.59 3.18 1.54 4.27L9.96 20l8.42-9.69c.95-1.09 1.54-2.6 1.54-4.27 0-1.67-.59-3.17-1.54-4.27" fill-rule="evenodd" class="icon-primary-color"/>	</svg>