<svg xmlns="http://www.w3.org/2000/svg" class="icon icon--brand-ps footer-logo ps-logo icon--white" aria-hidden="true" viewBox="0 0 20 20" focusable="false" version="1.1">
		<title/><path d="M1.5 15.51c-1.58-.44-1.84-1.37-1.12-1.9.66-.49 1.8-.86 1.8-.86l4.67-1.66v1.89l-3.36 1.2c-.59.21-.69.51-.2.67.48.16 1.36.11 1.95-.1l1.61-.58v1.69c-.1.02-.22.04-.32.05-1.62.27-3.34.16-5.03-.4zm9.85.2l5.24-1.87c.6-.21.69-.51.2-.67-.48-.16-1.36-.11-1.95.1l-3.49 1.23v-1.96l.2-.07s1.01-.36 2.43-.51c1.42-.16 3.16.02 4.52.54 1.54.49 1.71 1.2 1.32 1.69-.39.49-1.35.84-1.35.84l-7.12 2.56v-1.88zm.62-12.1c2.76.95 3.69 2.13 3.69 4.78 0 2.59-1.6 3.57-3.63 2.59V6.16c0-.57-.1-1.09-.64-1.23-.41-.13-.66.25-.66.81v12.08l-3.26-1.03V2.38c1.39.26 3.41.86 4.5 1.23zm7.25 13.1c0 .04-.01.07-.03.08-.02.02-.06.02-.1.02h-.21v-.21h.22c.03 0 .05 0 .07.01.04.03.05.06.05.1zm.15.48c-.01 0-.02-.02-.02-.03 0-.01-.01-.03-.01-.06V17c0-.05-.01-.08-.03-.1l-.04-.04c.02-.02.04-.03.06-.05.02-.03.03-.07.03-.11 0-.09-.04-.15-.11-.18a.29.29 0 0 0-.14-.03H18.76v.75h.14v-.31h.2c.04 0 .06 0 .08.01.03.01.04.04.04.08l.01.12c0 .03 0 .05.01.06 0 .01.01.02.01.03v.01h.15v-.04l-.03-.01zm-.88-.31c0-.15.06-.29.16-.39a.552.552 0 0 1 .94.39.552.552 0 1 1-.94.39.513.513 0 0 1-.16-.39zm.55.67c.18 0 .35-.07.47-.2a.65.65 0 0 0 0-.94.641.641 0 0 0-.47-.19c-.37 0-.67.3-.67.67 0 .18.07.34.2.47.13.12.29.19.47.19z" fill-rule="evenodd" class="icon-primary-color"/>	</svg>