<svg xmlns="http://www.w3.org/2000/svg" class="icon icon--search icon--26 icon--white" aria-hidden="true" viewBox="0 0 20 20" focusable="false" version="1.1">
		<title/><path d="M7.43 12.54c-2.82-.01-5.11-2.29-5.11-5.11 0-2.82 2.29-5.11 5.11-5.11 2.82.01 5.11 2.29 5.11 5.11a5.126 5.126 0 0 1-5.11 5.11zm6.39-1.34c.65-1.11 1.03-2.4 1.03-3.78 0-4.1-3.32-7.42-7.42-7.43A7.437 7.437 0 0 0 0 7.43c0 4.1 3.32 7.42 7.42 7.43 1.38 0 2.67-.38 3.78-1.03L17.38 20 20 17.38l-6.18-6.18z" fill-rule="evenodd" class="icon-primary-color"/>	</svg>