<svg xmlns="http://www.w3.org/2000/svg" class="icon icon--microphone icon--12 icon--grey" aria-hidden="true" viewBox="0 0 20 20" focusable="false" version="1.1">
		<title/><path d="M11.14 16.86a5.86 5.86 0 0 0 5.59-5.85V8.5h-1.61v2.51c0 2.35-1.91 4.24-4.25 4.25H9.79c-2.35 0-4.25-1.9-4.25-4.25V8.5H3.93v2.51a5.86 5.86 0 0 0 5.59 5.85v1.53H6.45V20h7.75v-1.61h-3.06v-1.53z" class="icon-primary-color"/><path d="M13.42 10.94V2.62A2.628 2.628 0 0 0 10.8 0h-.94C9.17 0 8.5.27 8.01.76s-.77 1.16-.77 1.85v8.32c0 .69.28 1.36.77 1.85s1.16.77 1.85.76h.94c.69 0 1.36-.28 1.85-.77.49-.48.77-1.14.77-1.83z" class="icon-primary-color"/>	</svg>