<svg xmlns="http://www.w3.org/2000/svg" class="icon icon--social-twitter icon--26 icon--white" aria-hidden="true" viewBox="0 0 20 20" focusable="false" version="1.1">
		<title/><path d="M6.35 19c7.43 0 11.49-6.16 11.49-11.49 0-.17 0-.35-.01-.52.79-.57 1.47-1.28 2.02-2.09-.74.33-1.52.54-2.32.64.84-.5 1.47-1.3 1.78-2.23-.79.47-1.66.8-2.57.98a4.046 4.046 0 0 0-5.72-.18c-1.05.97-1.49 2.45-1.17 3.85-3.25-.16-6.27-1.7-8.32-4.22a4.03 4.03 0 0 0 1.25 5.39c-.65-.02-1.27-.19-1.84-.51v.05c0 1.92 1.36 3.58 3.24 3.96a4 4 0 0 1-1.82.07 4.056 4.056 0 0 0 3.77 2.81 8.147 8.147 0 0 1-5.02 1.73c-.32 0-.64-.02-.96-.06C2 18.37 4.15 19 6.35 19" class="icon-primary-color"/>	</svg>