<svg xmlns="http://www.w3.org/2000/svg" class="icon icon--error icon--26 icon--white" aria-hidden="true" viewBox="0 0 20 20" focusable="false" version="1.1">
		<title/><path d="M13.88.04l-1.37 1.37-2.58 2.58-2.44-2.44L6.12.18 4.75 1.55 1.51 4.79.14 6.16l1.37 1.37 2.44 2.44-2.58 2.58L0 13.92l1.37 1.37 3.25 3.25 1.37 1.37 1.37-1.37 2.58-2.58 2.72 2.72 1.37 1.37 1.37-1.37 3.25-3.25L20 14.06l-1.37-1.37-2.72-2.72 2.58-2.58 1.37-1.37-1.36-1.37-3.25-3.25L13.88.04zm0 2.73l3.25 3.25-3.95 3.95 4.09 4.09-3.25 3.25-4.09-4.08-3.95 3.94-3.25-3.25 3.95-3.95-3.81-3.81 3.25-3.25 3.81 3.81 3.95-3.95z" fill-rule="evenodd" class="icon-primary-color"/>	</svg>